# xmcd CD database file
#
# Track frame offsets:
#	182
#	15275
#	36890
#	68012
#	75477
#	89700
#	103827
#	120660
#	142802
#	158422
#	171132
#	187905
#	194645
#	209152
#	224800
#	229785
#
# Disc length: 3315 seconds
#
# Revision: 2
# Processed by: cddbd v1.5.2PL0 Copyright (c) Steve Scherf et al.
# Submitted via: CDex 1.51
#
DISCID=dd0cf110
DTITLE=Lightnin' Hopkins - Prison Blues - Golden Classics Part 2
DYEAR=1900
DGENRE=Blues
TTITLE0=Keep Movin' On
TTITLE1=That's My Story
TTITLE2=Dillon's Store
TTITLE3=Long Time
TTITLE4=Rainy Day Blues
TTITLE5=Baby!
TTITLE6=Long Gone Like A Turkey
TTITLE7=Goin' Back Home
TTITLE8=Prison Blues Come Down On Me
TTITLE9=Backwater Blues
TTITLE10=Gonna' Pull A Party
TTITLE11=Bluebird Bluebird
TTITLE12=See See Rider
TTITLE13=Worrying My Mind
TTITLE14=Til The Gin Gets Here
TTITLE15=Good Times
EXTD=
EXTT0=
EXTT1=
EXTT2=
EXTT3=
EXTT4=
EXTT5=
EXTT6=
EXTT7=
EXTT8=
EXTT9=
EXTT10=
EXTT11=
EXTT12=
EXTT13=
EXTT14=
EXTT15=
PLAYORDER=
